<svg width="257" height="48" viewBox="0 0 257 48" fill="none" xmlns="http://www.w3.org/2000/svg">
<path fill-rule="evenodd" clip-rule="evenodd" d="M23.8395 39.6475C20.5637 39.3599 18.5684 38.8514 16.2431 37.3108C15.5383 36.8439 15.3873 36.6382 14.8584 36.1667C13.7909 35.215 12.3367 32.9068 12.125 31.48C14.2304 31.3775 16.5855 31.4721 18.7185 31.4721C19.2687 31.4721 19.84 31.4567 20.3873 31.4698C21.1013 31.4871 21.1243 31.6903 21.5579 31.9975C22.2232 32.4687 22.8986 32.8061 23.8386 32.9989L23.8395 39.6479V39.6475ZM21.3711 26.3214H28.3423L28.3425 30.8554L25.2122 30.8634L25.2114 43.9959H24.5024L24.4797 30.8567L21.3713 30.856V26.3216L21.3711 26.3214ZM24.502 6.2716L25.2111 6.27178L25.21 19.4006L28.3422 19.4119L28.3425 23.4215H21.3715L21.3713 19.4121L24.5024 19.396L24.5022 6.27141L24.502 6.2716ZM25.8738 8.16787C29.8203 8.22099 33.8185 10.0234 35.908 13.1434C36.526 14.0662 37.1399 15.458 37.2916 16.7909H29.2059C28.9603 16.7416 28.9905 16.4975 28.5463 16.0615C27.288 14.8259 26.0352 14.9706 25.874 14.6618L25.8738 8.16787ZM28.9932 25.6709C28.114 25.5965 23.3403 25.6587 21.9264 25.6587C21.0184 25.6587 21.2864 25.6803 20.6238 25.7299C20.3973 25.747 18.8699 25.1394 18.5924 25.0291C15.8706 23.9481 13.5445 22.4449 12.9303 19.4008C12.2052 15.8072 13.6447 12.6548 15.5087 11.0802C18.261 8.7553 20.3151 8.51211 23.8386 8.13715L23.8395 14.6009C21.9018 14.6649 19.9376 15.5927 20.2655 17.4938C20.4038 18.2955 20.9192 18.5161 21.1102 18.7365L20.7091 18.7612L20.7206 24.0843L29.0034 24.073L29.0047 21.1927C30.1105 21.4192 31.6485 22.0368 32.6083 22.4847C36.367 24.2394 38.299 27.0318 37.4341 31.8324C36.5295 36.8535 31.7051 39.6194 25.8736 39.6631L25.8888 33.1834C30.7962 33.1383 30.3572 28.991 29.0055 28.4389L28.9931 25.6709H28.9932ZM47.7304 25.3961C47.9813 21.7329 47.3293 18.238 46.1291 15.1346C45.5978 13.761 44.851 12.2854 44.1164 11.1639C42.4019 8.54579 40.9494 6.91732 38.4017 4.90964C37.2731 4.02036 36.1249 3.34132 34.7354 2.59269C32.2202 1.23758 28.672 0.230771 25.3837 0.0432909C18.4536 -0.351843 12.6441 1.97806 7.79594 6.20812C7.64048 6.34378 7.54979 6.48129 7.40136 6.61325L5.60281 8.51896C5.40237 8.79361 5.15863 9.04105 4.93321 9.32681C4.1459 10.3244 3.26699 11.7095 2.61737 12.9957C1.23413 15.7346 0.272111 18.795 0.046876 22.3316C-0.368986 28.8564 2.00459 35.5752 6.2737 39.9988C6.53688 40.2714 6.73361 40.5302 7.01326 40.803C7.28439 41.0676 7.4926 41.236 7.7667 41.5294C7.9118 41.6847 8.01174 41.735 8.16775 41.8699C8.33765 42.0167 8.38892 42.0818 8.564 42.2147C10.1436 43.4147 10.7603 44.061 13.0617 45.1827C19.3307 48.2383 26.0783 48.6918 32.6561 46.1196C34.7563 45.2984 37.5444 43.702 39.1951 42.2319L39.9887 41.5455C41.0816 40.6501 41.1667 40.3288 41.8504 39.6444C42.0043 39.4902 42.0567 39.3938 42.1902 39.2435C42.3491 39.0647 42.3817 38.9957 42.524 38.8365C42.6682 38.6752 42.7352 38.5971 42.8562 38.4307C45.6907 34.5369 47.37 30.6576 47.7304 25.3959V25.3961Z" fill="white"/>
<path fill-rule="evenodd" clip-rule="evenodd" d="M23.8395 39.6476L23.8385 32.9986C22.8984 32.8058 22.2232 32.4684 21.5579 31.9972C21.1242 31.6901 21.1013 31.4867 20.3873 31.4695C19.84 31.4564 19.2687 31.4718 18.7185 31.4718C16.5857 31.4718 14.2304 31.3774 12.125 31.4797C12.3367 32.9065 13.791 35.2147 14.8584 36.1664C15.3873 36.6379 15.5383 36.8435 16.2431 37.3105C18.5684 38.851 20.5637 39.3598 23.8395 39.6472V39.6476ZM25.874 14.6618C26.0352 14.9707 27.288 14.826 28.5463 16.0615C28.9905 16.4976 28.9603 16.7417 29.2059 16.7909H37.2916C37.1398 15.458 36.5259 14.0662 35.908 13.1435C33.8185 10.0237 29.8203 8.22105 25.8738 8.16793L25.874 14.6618ZM28.9932 25.671L29.0056 28.4389C30.3574 28.991 30.7964 33.1384 25.889 33.1835L25.8738 39.6631C31.7053 39.6195 36.5296 36.8535 37.4343 31.8325C38.2993 27.0318 36.3672 24.2394 32.6085 22.4847C31.6489 22.0368 30.1107 21.4191 29.0049 21.1927L29.0036 24.073L20.7208 24.0843L20.7093 18.7612L21.1104 18.7366C20.9195 18.5164 20.4039 18.2956 20.2657 17.4938C19.9379 15.5927 21.9019 14.665 23.8397 14.6009L23.8387 8.13721C20.3153 8.51217 18.2611 8.75554 15.5089 11.0803C13.6448 12.6551 12.2053 15.8072 12.9304 19.4008C13.5447 22.4449 15.8707 23.9481 18.5926 25.0291C18.87 25.1394 20.3975 25.7469 20.624 25.73C21.2866 25.6804 21.0186 25.6588 21.9265 25.6588C23.3405 25.6588 28.1141 25.5966 28.9934 25.671H28.9932Z" fill="#1C146B"/>
<path fill-rule="evenodd" clip-rule="evenodd" d="M21.3701 30.8556L24.4784 30.8564L24.5012 43.9955L25.2102 43.9957L25.211 30.8632L28.3415 30.8552L28.3413 26.3213H21.3701V30.8556Z" fill="#E73A00"/>
<path fill-rule="evenodd" clip-rule="evenodd" d="M24.5012 19.396L21.3701 19.4121L21.3703 23.4216H28.3415L28.3411 19.4119L25.2089 19.4005L25.21 6.27167L24.501 6.27148L24.5012 19.396Z" fill="#169200"/>
<path fill-rule="evenodd" clip-rule="evenodd" d="M101.057 24.9292C103.298 24.4436 104.123 26.3386 103.757 28.4519C103.459 30.1674 102.489 31.7464 100.975 32.0772C96.7424 33.0018 97.6499 25.6677 101.057 24.9292ZM127.082 26.4376L133.602 26.4424L133.567 25.798C133.567 24.4353 133.164 23.0972 132.613 21.9934C130.867 18.4908 127.007 17.2564 122.963 17.7222C119.011 18.1777 116.114 20.0503 114.053 22.9517C113.704 23.4433 113.472 23.8593 113.172 24.4142L112.618 25.6462C112.589 25.7213 112.571 25.7835 112.529 25.8703C112.52 25.8877 112.486 25.9471 112.479 25.9599L112.42 26.0487C112.156 19.8721 106.83 16.7147 100.263 17.8609C94.8234 18.8099 90.6896 22.7098 89.7607 28.1404C89.2419 31.1725 89.6284 33.9923 91.5829 36.3069C92.5696 37.4752 93.2503 37.8108 94.5706 38.5065C95.5998 39.0489 97.4777 39.3374 98.8991 39.3739C101.914 39.4514 104.97 38.4863 106.988 37.1036C110.611 34.6205 111.071 32.0853 111.608 31.3744C111.619 32.7225 112.032 34.2207 112.587 35.2332C114.471 38.6691 118.541 39.8086 122.533 39.2567C123.896 39.0682 125.043 38.7156 126.191 38.1752C127.349 37.6309 128.949 36.53 129.706 35.7039C130.929 34.3693 132.38 32.3318 132.836 30.5636L124.088 30.5633C123.902 30.6575 123.924 30.7245 123.819 30.9271C123.306 31.9241 122.079 32.59 121.031 32.0292C119.383 31.147 120.277 26.2494 121.981 25.1395C122.483 24.8128 123.248 24.6381 123.86 24.944C124.365 25.1963 124.646 25.743 124.744 26.4444L127.083 26.4378L127.082 26.4376Z" fill="white"/>
<path fill-rule="evenodd" clip-rule="evenodd" d="M217.958 35.328C217.918 35.5222 217.785 36.6837 217.647 36.8566C217.698 37.3729 217.376 38.5078 217.308 39.1069L225.57 39.1054C225.757 39.049 225.98 37.3107 226.011 37.1277C226.306 35.4104 227.551 27.8012 227.901 26.9873C228.351 25.9383 229.241 25.1639 230.666 25.0046C232.196 24.8332 233.392 25.4399 233.601 26.8015C233.736 27.6772 232.545 33.694 232.308 35.0304C232.073 36.3511 231.761 37.7792 231.593 39.1056H239.821C240.002 39.0482 240.194 37.4849 240.258 37.1231C240.565 35.3849 241.788 27.8338 242.121 27.0169C243.173 24.4421 247.43 24.2167 247.843 26.7554C247.995 27.6878 246.797 33.65 246.554 35.0301C246.321 36.3595 246.01 37.7734 245.84 39.1054L254.163 39.0673C254.708 36.0606 255.228 33.0683 255.762 30.0519C256.292 27.0563 257.181 23.809 255.787 21.0251C255.188 19.8299 254.246 18.9825 253.055 18.4515C251.768 17.8781 250.12 17.6301 248.573 17.7841C246.268 18.0136 244.679 18.9895 243.07 20.2552C242.752 20.5051 241.954 21.4284 241.71 21.5437C241.563 20.9566 241.152 20.3738 240.811 19.9639C238.614 17.326 234.637 17.2489 231.671 18.6043C230.788 19.0076 229.269 20.1388 228.913 20.6764L229.409 17.9L221.059 17.9016L217.957 35.3279L217.958 35.328Z" fill="white"/>
<path fill-rule="evenodd" clip-rule="evenodd" d="M206.013 17.9014C206.123 16.9816 206.939 13.3232 206.862 12.7808H198.576C198.257 13.5072 197.82 17.7393 197.579 17.8768C197.161 18.115 194.449 17.3129 191.472 19.1222C190.862 19.493 190.298 19.9022 189.823 20.3111L188.362 21.7143C188.439 21.0055 189.034 18.3213 188.963 17.9014C188.818 17.9014 180.827 17.8209 180.683 17.963C180.632 18.0241 177.111 37.4138 176.896 39.1065H185.162C185.388 38.9475 185.394 38.301 185.442 38.0205C185.812 35.8862 186.493 31.63 186.89 29.9633C187.736 26.4137 190.652 26.6778 194.407 26.676C194.563 26.1135 194.611 24.9307 194.848 24.8728L196.386 24.8761C195.993 28.1447 194.29 33.0777 195.863 36.0379C197.636 39.3748 201.332 39.1041 205.777 39.1056L207.047 32.0131C206.055 31.9169 204.216 32.3181 203.816 31.4803C203.561 30.9429 204.036 28.9459 204.154 28.2841C204.341 27.2382 204.497 26.1607 204.706 25.1352C204.783 24.7591 204.906 24.8656 205.334 24.8706L208.112 24.8717C208.248 24.7919 208.192 24.8476 208.254 24.679L208.843 21.3751C208.952 20.7573 209.465 18.3265 209.429 17.9021L206.013 17.9016L206.013 17.9014Z" fill="white"/>
<path fill-rule="evenodd" clip-rule="evenodd" d="M143.576 21.4177L144.192 17.925L145.347 11.2842L137.002 11.2947L134.444 25.7568L133.725 29.8062L132.089 39.1059H140.451C140.589 37.8157 140.948 36.2222 141.188 34.908C141.315 34.213 141.432 33.5144 141.561 32.8115L141.935 30.8288C141.94 30.8162 141.956 30.8073 141.96 30.7801C141.964 30.7525 141.977 30.7468 141.987 30.7314C142.13 31.2704 142.656 32.3029 142.9 32.8653L145.447 38.6458C145.591 38.9695 145.564 39.0661 145.742 39.106L155.605 39.0988C155.453 38.7303 155.05 38.1244 154.839 37.7668C154.566 37.3067 154.324 36.9055 154.057 36.4517C153.442 35.4033 149.763 29.3363 149.416 28.6038C149.574 28.3188 152.575 25.1755 153.101 24.5499C154.011 23.4661 155.733 21.7537 156.756 20.5544C157.324 19.8892 158.733 18.5065 159.163 17.9011L150.059 17.9004C149.365 17.8956 149.552 17.8214 149.051 18.4012C148.042 19.5687 143.096 25.5405 142.79 25.7809L143.576 21.4179L143.576 21.4177Z" fill="white"/>
<path fill-rule="evenodd" clip-rule="evenodd" d="M58.2059 14.1716L57.485 14.7443C56.6304 15.4986 55.8673 16.473 55.3271 17.8951C54.8133 19.2479 54.6303 21.0969 54.9458 22.6038C55.3208 24.3953 56.4788 25.6938 57.6786 26.5365C60.4938 28.5138 64.4859 29.2441 65.2826 30.8998C66.1175 32.6348 63.6797 33.3842 62.5478 32.5242C62.0003 32.1083 61.8641 31.4428 61.9492 30.5644L53.0546 30.5635C52.9698 32.0073 52.9567 32.985 53.4319 34.2979C54.1818 36.3693 55.7757 37.5834 57.7301 38.3907C58.7271 38.8026 59.9441 39.0728 61.0946 39.2191C65.5041 39.7791 70.7743 39.0138 73.3189 35.0867C74.5606 33.1706 74.9146 30.4791 74.1214 28.3535C72.9663 25.258 69.8282 23.9865 67.1989 22.6895C65.9522 22.0747 63.7404 21.1895 63.9543 19.6761C64.0291 19.1487 64.4942 18.7182 64.9765 18.6008C66.2418 18.2929 67.0789 19.0807 66.862 20.6598L75.8598 20.6607C76.013 18.7448 75.8365 17.5437 74.9842 16.0799C74.3633 15.0135 73.288 14.0297 72.0906 13.4176C68.2281 11.4433 61.9379 11.4655 58.2059 14.1718V14.1716Z" fill="white"/>
<path fill-rule="evenodd" clip-rule="evenodd" d="M164.939 26.5262C165.051 26.0149 165.554 25.2126 165.804 24.9777C167.038 23.8175 170.27 23.6045 169.91 26.4842C169.892 26.4914 169.87 26.4972 169.854 26.5007L169.74 26.5274C169.37 26.5851 165.023 26.5325 164.939 26.5262ZM177.574 29.9762C178.027 29.6864 178.283 26.7498 178.283 26.1365C178.291 17.4576 169.277 16.2085 163.44 18.8514C161.27 19.8336 159.613 21.4093 158.322 23.3555C156.931 25.4534 156.143 28.3679 156.137 31.01C156.123 36.7153 160.482 39.7876 166.286 39.3375C170.013 39.0486 173.197 37.1986 175.368 34.48C175.857 33.867 176.8 32.4044 177.034 31.4729L168.163 31.4733C167.568 32.8495 164.234 33.6969 164.233 30.6397C164.233 29.7591 164.135 29.9758 165.359 29.9758L177.574 29.976L177.574 29.9762Z" fill="white"/>
<path fill-rule="evenodd" clip-rule="evenodd" d="M91.4102 17.9004C87.2254 17.9047 87.9111 18.203 88.1582 16.7955C88.273 16.1419 88.8761 13.1781 88.8306 12.7807C86.4355 12.7731 84.0392 12.7802 81.6441 12.7802C80.3312 12.7802 80.5161 12.6493 80.4095 13.3052C80.1752 14.7468 79.7706 16.5546 79.6091 17.9003L76.9692 17.9043L75.7534 24.8707H78.3445C77.9819 28.2189 76.2229 33.0073 77.8281 36.0599C79.5939 39.4181 84.0766 39.2702 87.7381 39.0968L89.0118 31.9974C85.8285 31.9974 85.4124 32.242 85.857 29.7321C86.0025 28.9105 86.144 28.0986 86.2947 27.268C86.3685 26.8608 86.4455 26.4213 86.5179 26.0108C86.5551 25.7996 86.5934 25.5923 86.6267 25.3839C86.636 25.326 86.6698 25.1019 86.6822 25.0676C86.7417 24.9037 86.6939 24.9501 86.8262 24.8711C87.7914 24.8698 88.766 24.8585 89.7302 24.8737C90.0724 24.879 90.1478 24.9486 90.2209 24.6632L91.4102 17.9008V17.9004Z" fill="white"/>
<path fill-rule="evenodd" clip-rule="evenodd" d="M216.079 35.5747L216.4 33.971C216.346 33.5483 218.258 23.1965 218.5 21.839C218.605 21.2499 219.175 18.2478 219.177 17.9013L210.836 17.8975L207.083 39.1066L215.438 39.0938L216.079 35.5748V35.5747Z" fill="white"/>
<path fill-rule="evenodd" clip-rule="evenodd" d="M220.847 12.1327C220.978 11.4788 220.927 10.7032 220.681 10.1137C219.2 6.56248 212.169 7.40476 211.266 12.0187C210.686 14.9815 213.134 16.4377 215.948 16.1951C218.273 15.9946 220.355 14.5945 220.847 12.1327Z" fill="white"/>
</svg>
