<svg width="21" height="21" viewBox="0 0 21 21" fill="none" xmlns="http://www.w3.org/2000/svg">
<path d="M9.99741 0.624031C12.5366 0.620845 14.9833 1.57712 16.8473 3.30133C18.7129 5.02887 19.8591 7.3959 20.0575 9.93073C20.2558 12.4656 19.4919 14.9821 17.9178 16.9788C16.3465 18.9737 14.0794 20.3012 11.5708 20.6954V13.6381H13.918L14.3718 10.7199H11.5708V8.82207C11.5708 8.02479 11.9633 7.24758 13.2133 7.24758H14.4822V4.76319C14.4822 4.76319 13.3337 4.56248 12.2253 4.56248C9.92827 4.56248 8.42738 5.97528 8.42738 8.4987V10.7199H5.86493V13.6481H8.42515V20.6954C5.93845 20.275 3.69966 18.9378 2.15062 16.9476C0.600101 14.9558 -0.15015 12.4566 0.0470705 9.94014C0.244291 7.42372 1.37475 5.07183 3.21663 3.34593C5.05695 1.62256 7.47628 0.651404 9.99741 0.624031Z" fill="#1877F2"/>
</svg>
