<svg width="21" height="21" viewBox="0 0 21 21" fill="none" xmlns="http://www.w3.org/2000/svg">
<path d="M10.0526 4.55546C11.5329 4.55546 12.8584 5.06561 13.9038 6.06082L16.7682 3.19647C15.0286 1.57821 12.7581 0.583008 10.0526 0.583008C6.13033 0.583008 2.73911 2.83267 1.0874 6.11099L4.42427 8.69936C5.21458 6.32007 7.43497 4.55546 10.0526 4.55546Z" fill="#EA4335"/>
<path d="M19.6619 10.8489C19.6619 10.1924 19.5992 9.55679 19.503 8.94629H10.0527V12.718H15.4636C15.2211 13.9558 14.5186 15.0095 13.4649 15.7204L16.6972 18.2293C18.5831 16.4814 19.6619 13.8972 19.6619 10.8489Z" fill="#4285F4"/>
<path d="M4.41927 12.5374C4.21855 11.931 4.10147 11.2871 4.10147 10.618C4.10147 9.949 4.21437 9.30504 4.41927 8.69872L1.0824 6.11035C0.400814 7.46517 0.0161133 8.99561 0.0161133 10.618C0.0161133 12.2405 0.400814 13.7709 1.08659 15.1257L4.41927 12.5374Z" fill="#FBBC05"/>
<path d="M10.0529 20.6537C12.7625 20.6537 15.0415 19.7631 16.6973 18.2243L13.465 15.7153C12.566 16.3217 11.4077 16.6771 10.0529 16.6771C7.43525 16.6771 5.21485 14.9125 4.42036 12.5332L1.0835 15.1216C2.73938 18.4041 6.13061 20.6537 10.0529 20.6537Z" fill="#34A853"/>
</svg>
